Normalized EMG Linear Envelopes
nRows=238
nColumns=4

endheader
time	 med_gas_r	  soleus_r	 tib_ant_r	
2.0291	  0.082250	  0.120606	  0.013751	
2.06237	  0.082107	  0.124028	  0.013843	
2.09563	  0.082367	  0.126724	  0.013562	
2.1289	  0.083119	  0.127732	  0.013109	
2.16216	  0.084342	  0.125745	  0.012662	
2.19542	  0.085857	  0.121579	  0.012299	
2.22869	  0.087465	  0.117140	  0.012073	
2.26195	  0.088955	  0.113296	  0.011999	
2.29522	  0.090064	  0.110320	  0.012035	
2.32848	  0.090555	  0.108430	  0.012104	
2.36174	  0.090274	  0.107690	  0.012186	
2.39501	  0.089031	  0.107972	  0.012267	
2.42827	  0.086890	  0.108804	  0.012289	
2.46154	  0.084390	  0.109655	  0.012231	
2.4948	  0.082184	  0.110406	  0.012156	
2.52806	  0.080606	  0.111191	  0.012071	
2.56133	  0.079752	  0.112110	  0.011937	
2.59459	  0.079788	  0.113058	  0.011782	
2.62786	  0.080927	  0.113521	  0.011633	
2.66112	  0.083073	  0.113252	  0.011528	
2.69438	  0.085867	  0.112529	  0.011479	
2.72765	  0.088750	  0.111802	  0.011510	
2.76091	  0.091438	  0.111156	  0.011620	
2.79418	  0.093992	  0.110551	  0.011774	
2.82744	  0.096638	  0.110104	  0.011948	
2.8607	  0.099336	  0.109987	  0.012128	
2.89397	  0.101644	  0.110058	  0.012261	
2.92723	  0.102757	  0.110150	  0.012258	
2.9605	  0.101991	  0.110331	  0.012126	
2.99376	  0.099526	  0.110874	  0.011917	
3.02702	  0.096174	  0.111852	  0.011708	
3.06029	  0.092756	  0.112966	  0.011540	
3.09355	  0.089569	  0.113862	  0.011470	
3.12682	  0.086618	  0.114601	  0.011518	
3.16008	  0.084070	  0.115136	  0.011598	
3.19334	  0.082123	  0.115446	  0.011674	
3.22661	  0.081050	  0.115428	  0.011732	
3.25987	  0.081056	  0.114630	  0.011711	
3.29314	  0.081910	  0.112897	  0.011607	
3.3264	  0.082945	  0.110497	  0.011504	
3.35966	  0.083414	  0.107958	  0.011439	
3.39293	  0.082699	  0.105507	  0.011426	
3.42619	  0.080952	  0.103112	  0.011468	
3.45946	  0.078939	  0.101019	  0.011548	
3.49272	  0.077282	  0.099601	  0.011628	
3.52598	  0.076148	  0.099206	  0.011705	
3.55925	  0.075401	  0.100001	  0.011781	
3.59251	  0.075029	  0.101736	  0.011842	
3.62578	  0.075315	  0.104108	  0.011868	
3.65904	  0.076532	  0.106595	  0.011898	
3.6923	  0.078357	  0.108664	  0.011948	
3.72557	  0.080131	  0.110095	  0.011967	
3.75883	  0.081410	  0.110868	  0.011927	
3.7921	  0.082191	  0.110925	  0.011871	
3.82536	  0.082785	  0.110364	  0.011822	
3.85862	  0.083216	  0.109474	  0.011773	
3.89189	  0.083374	  0.108829	  0.011749	
3.92515	  0.083378	  0.108814	  0.011800	
3.95842	  0.083469	  0.109488	  0.011884	
3.99168	  0.083656	  0.110782	  0.011950	
4.02494	  0.083738	  0.112681	  0.012016	
4.05821	  0.083404	  0.115030	  0.012072	
4.09147	  0.082528	  0.117406	  0.012088	
4.12474	  0.081221	  0.119259	  0.012063	
4.158	  0.079750	  0.120028	  0.012056	
4.19126	  0.078464	  0.119419	  0.012080	
4.22453	  0.077812	  0.118196	  0.012100	
4.25779	  0.077896	  0.117179	  0.012115	
4.29106	  0.078313	  0.116497	  0.012128	
4.32432	  0.078818	  0.116057	  0.012137	
4.35758	  0.079436	  0.115947	  0.012171	
4.39085	  0.080308	  0.116284	  0.012260	
4.42411	  0.081403	  0.116569	  0.012378	
4.45738	  0.082480	  0.116242	  0.012528	
4.49064	  0.083368	  0.115254	  0.012768	
4.5239	  0.084392	  0.113643	  0.013143	
4.55717	  0.085784	  0.111464	  0.013629	
4.59043	  0.087451	  0.109017	  0.014132	
4.6237	  0.089272	  0.106545	  0.014548	
4.65696	  0.091500	  0.104526	  0.014849	
4.69022	  0.094278	  0.103866	  0.015022	
4.72349	  0.097721	  0.105296	  0.015059	
4.75675	  0.101996	  0.109329	  0.014917	
4.79002	  0.106866	  0.116094	  0.014694	
4.82328	  0.111695	  0.125047	  0.014617	
4.85654	  0.115842	  0.135114	  0.014802	
4.88981	  0.118634	  0.145571	  0.015290	
4.92307	  0.120811	  0.156377	  0.016040	
4.95634	  0.123527	  0.167183	  0.016997	
4.9896	  0.127109	  0.177133	  0.018198	
5.02286	  0.130642	  0.185121	  0.019692	
5.05613	  0.133833	  0.191556	  0.021439	
5.08939	  0.137522	  0.197696	  0.023403	
5.12266	  0.141560	  0.204246	  0.025517	
5.15592	  0.145266	  0.210197	  0.027658	
5.18918	  0.148590	  0.214254	  0.030071	
5.22245	  0.151345	  0.215379	  0.032958	
5.25571	  0.152728	  0.213810	  0.036164	
5.28898	  0.151860	  0.211937	  0.039213	
5.32224	  0.148766	  0.211037	  0.041129	
5.3555	  0.144714	  0.210732	  0.041049	
5.38877	  0.140927	  0.210613	  0.039645	
5.42203	  0.138187	  0.211254	  0.038033	
5.4553	  0.137402	  0.213709	  0.037087	
5.48856	  0.138129	  0.217612	  0.037135	
5.52182	  0.138936	  0.221443	  0.038212	
5.55509	  0.140192	  0.222910	  0.040207	
5.58835	  0.143388	  0.221506	  0.042690	
5.62162	  0.148513	  0.218864	  0.044882	
5.65488	  0.154673	  0.216543	  0.046508	
5.68814	  0.161723	  0.215521	  0.048238	
5.72141	  0.168464	  0.216554	  0.050470	
5.75467	  0.173011	  0.219237	  0.052948	
5.78794	  0.175174	  0.223114	  0.055188	
5.8212	  0.176487	  0.228282	  0.057455	
5.85446	  0.177605	  0.234007	  0.060616	
5.88773	  0.178742	  0.238590	  0.064656	
5.92099	  0.180351	  0.242038	  0.068750	
5.95426	  0.182360	  0.245364	  0.072555	
5.98752	  0.183257	  0.248967	  0.076977	
6.02078	  0.184016	  0.252978	  0.082576	
6.05405	  0.185531	  0.257008	  0.088884	
6.08731	  0.186571	  0.261409	  0.095388	
6.12058	  0.184981	  0.267639	  0.101905	
6.15384	  0.181789	  0.276808	  0.108425	
6.1871	  0.177843	  0.287694	  0.115070	
6.22037	  0.172903	  0.297964	  0.121571	
6.25363	  0.167871	  0.304398	  0.126929	
6.2869	  0.164633	  0.306716	  0.131513	
6.32016	  0.163453	  0.307761	  0.136931	
6.35342	  0.163352	  0.308598	  0.143895	
6.38669	  0.164093	  0.309080	  0.153132	
6.41995	  0.165576	  0.309563	  0.163776	
6.45322	  0.168127	  0.310324	  0.173584	
6.48648	  0.172454	  0.310713	  0.181506	
6.51974	  0.178570	  0.311972	  0.187419	
6.55301	  0.185101	  0.315727	  0.189714	
6.58627	  0.191475	  0.322747	  0.187280	
6.61954	  0.197220	  0.332028	  0.182236	
6.6528	  0.200824	  0.341840	  0.177393	
6.68606	  0.201091	  0.350252	  0.174876	
6.71933	  0.199209	  0.356641	  0.175755	
6.75259	  0.196437	  0.360674	  0.180850	
6.78586	  0.192085	  0.363281	  0.188845	
6.81912	  0.186272	  0.364199	  0.196661	
6.85238	  0.180883	  0.364985	  0.202310	
6.88565	  0.177633	  0.367584	  0.206073	
6.91891	  0.176642	  0.371453	  0.208238	
6.95218	  0.178468	  0.375807	  0.209149	
6.98544	  0.183327	  0.378845	  0.209222	
7.0187	  0.189561	  0.381181	  0.209664	
7.05197	  0.196075	  0.383684	  0.210664	
7.08523	  0.203369	  0.386216	  0.211362	
7.1185	  0.210068	  0.388795	  0.211419	
7.15176	  0.214308	  0.390457	  0.211170	
7.18502	  0.216342	  0.388151	  0.211110	
7.21829	  0.216682	  0.381450	  0.211599	
7.25155	  0.215655	  0.373702	  0.213134	
7.28482	  0.214200	  0.368171	  0.215022	
7.31808	  0.212773	  0.367490	  0.215773	
7.35134	  0.210156	  0.371051	  0.215255	
7.38461	  0.206288	  0.377269	  0.214060	
7.41787	  0.203163	  0.384717	  0.211498	
7.45114	  0.200871	  0.391947	  0.206954	
7.4844	  0.199171	  0.398738	  0.202140	
7.51766	  0.197587	  0.403586	  0.198803	
7.55093	  0.195537	  0.404603	  0.196680	
7.58419	  0.191975	  0.403309	  0.194602	
7.61746	  0.187510	  0.403156	  0.192409	
7.65072	  0.185022	  0.405764	  0.190185	
7.68398	  0.185328	  0.411710	  0.187662	
7.71725	  0.187354	  0.418967	  0.185879	
7.75051	  0.190534	  0.426739	  0.186131	
7.78378	  0.194867	  0.436349	  0.188008	
7.81704	  0.199865	  0.447124	  0.190823	
7.8503	  0.204750	  0.456405	  0.194480	
7.88357	  0.208517	  0.461930	  0.198416	
7.91683	  0.209393	  0.463707	  0.200988	
7.9501	  0.207558	  0.464028	  0.203609	
7.98336	  0.205365	  0.464540	  0.208181	
8.01662	  0.203926	  0.465606	  0.213717	
8.04989	  0.202599	  0.466132	  0.219133	
8.08315	  0.200973	  0.465569	  0.225715	
8.11642	  0.200377	  0.462888	  0.232970	
8.14968	  0.201136	  0.456337	  0.240146	
8.18294	  0.204078	  0.446782	  0.247449	
8.21621	  0.209019	  0.437756	  0.254649	
8.24947	  0.213893	  0.431989	  0.261959	
8.28274	  0.218183	  0.431807	  0.270703	
8.316	  0.222735	  0.436824	  0.280758	
8.34926	  0.226965	  0.444892	  0.290699	
8.38253	  0.230227	  0.453828	  0.300173	
8.41579	  0.232111	  0.462653	  0.308845	
8.44906	  0.231726	  0.471543	  0.316411	
8.48232	  0.228967	  0.480294	  0.322897	
8.51558	  0.226293	  0.486521	  0.328373	
8.54885	  0.224795	  0.489636	  0.332957	
8.58211	  0.223868	  0.493258	  0.337276	
8.61538	  0.224823	  0.499583	  0.341773	
8.64864	  0.227487	  0.509636	  0.346889	
8.6819	  0.229375	  0.522505	  0.353218	
8.71517	  0.229717	  0.534178	  0.361175	
8.74843	  0.228535	  0.541547	  0.371390	
8.7817	  0.226751	  0.542435	  0.384885	
8.81496	  0.227092	  0.536576	  0.402553	
8.84822	  0.230751	  0.528023	  0.423669	
8.88149	  0.235931	  0.520258	  0.446525	
8.91475	  0.241057	  0.514844	  0.468048	
8.94802	  0.245522	  0.512667	  0.484621	
8.98128	  0.248572	  0.512127	  0.495820	
9.01454	  0.250143	  0.510775	  0.500870	
9.04781	  0.250588	  0.508154	  0.496921	
9.08107	  0.248693	  0.504974	  0.485505	
9.11434	  0.244013	  0.500820	  0.469569	
9.1476	  0.238568	  0.496355	  0.451024	
9.18086	  0.234003	  0.491555	  0.432759	
9.21413	  0.230188	  0.486280	  0.414072	
9.24739	  0.227048	  0.482946	  0.394577	
9.28066	  0.224507	  0.482866	  0.378302	
9.31392	  0.222649	  0.485679	  0.367950	
9.34718	  0.221895	  0.490294	  0.363424	
9.38045	  0.223267	  0.494478	  0.363203	
9.41371	  0.226406	  0.497045	  0.365805	
9.44698	  0.230357	  0.498708	  0.367938	
9.48024	  0.234733	  0.499027	  0.369174	
9.5135	  0.239969	  0.497903	  0.368883	
9.54677	  0.245672	  0.498758	  0.367186	
9.58003	  0.249555	  0.502336	  0.367307	
9.6133	  0.249837	  0.508069	  0.370450	
9.64656	  0.245814	  0.513361	  0.376414	
9.67982	  0.240207	  0.516370	  0.385480	
9.71309	  0.235721	  0.515879	  0.396509	
9.74635	  0.232043	  0.512362	  0.407078	
9.77962	  0.227880	  0.505673	  0.413706	
9.81288	  0.222388	  0.496159	  0.413205	
9.84614	  0.216370	  0.485655	  0.408036	
9.87941	  0.210906	  0.476410	  0.400960	
9.91267	  0.206135	  0.469939	  0.392442	
